<svg xmlns="http://www.w3.org/2000/svg" style="isolation:isolate" viewBox="45.317 48.089 600 73.299">
  <path d="M424.02 67.542l24.931 43.035h-38.897l-5.607 9.484h61.531l-41.979-71.972-41.937 71.972h11.31l30.648-52.519zM58.391 88.745H68.55c6.08 0 11.492-1.333 11.492-8.91 0-7.579-5.412-8.91-11.492-8.91H58.391v17.82zM45.317 60.764h26.814c14.823 0 20.569 9.411 20.569 19.071 0 9.659-5.746 19.069-20.569 19.069h-13.74v21.318H45.317V60.764zM121.265 99.154c-1.999 1.75-6.163 1.832-9.827 2.498-3.664.75-6.995 1.999-6.995 6.33 0 4.413 3.415 5.496 7.245 5.496 9.243 0 9.577-7.328 9.577-9.91v-4.414zM93.95 90.41c.667-11.075 10.577-14.406 20.236-14.406 8.577 0 18.903 1.915 18.903 12.241v22.401c0 3.914.417 7.828 1.5 9.576h-11.992c-.417-1.332-.749-2.747-.833-4.163-3.747 3.914-9.243 5.329-14.49 5.329-8.161 0-14.656-4.08-14.656-12.907 0-9.744 7.328-12.075 14.656-13.074 7.245-1.083 13.991-.833 13.991-5.663 0-5.08-3.498-5.829-7.662-5.829-4.496 0-7.412 1.833-7.828 6.495H93.95zM138.753 77.169h11.242v7.995h.168c2.164-5.413 7.993-9.16 13.739-9.16.833 0 1.832.166 2.581.416v10.993c-1.082-.25-2.831-.417-4.247-.417-8.66 0-11.658 6.246-11.658 13.823v19.404h-11.825V77.169zM196.046 99.154c-1.998 1.75-6.162 1.832-9.825 2.498-3.664.75-6.996 1.999-6.996 6.33 0 4.413 3.414 5.496 7.245 5.496 9.243 0 9.576-7.328 9.576-9.91v-4.414zm-27.314-8.744c.667-11.075 10.577-14.406 20.236-14.406 8.577 0 18.904 1.915 18.904 12.241v22.401c0 3.914.415 7.828 1.498 9.576h-11.99c-.417-1.332-.75-2.747-.834-4.163-3.748 3.914-9.243 5.329-14.49 5.329-8.161 0-14.656-4.08-14.656-12.907 0-9.744 7.328-12.075 14.656-13.074 7.245-1.083 13.99-.833 13.99-5.663 0-5.08-3.497-5.829-7.661-5.829-4.497 0-7.411 1.833-7.828 6.495h-11.825zM212.12 60.765h11.825v59.458H212.12V60.765zM258.503 94.074c-1.082-5.995-3.664-9.16-9.41-9.16-7.495 0-9.66 5.829-9.827 9.16h19.237zm-19.237 7.495c.334 7.495 3.997 10.909 10.577 10.909 4.746 0 8.577-2.914 9.327-5.579h10.408c-3.33 10.159-10.408 14.489-20.151 14.489-13.574 0-21.985-9.327-21.985-22.65 0-12.907 8.91-22.735 21.985-22.735 14.656 0 21.733 12.325 20.901 25.566h-31.062zM273.827 60.765h11.825v59.458h-11.825V60.765zM289.816 77.169h11.241v5.997h.25c2.998-4.83 8.162-7.162 13.157-7.162 12.575 0 15.739 7.078 15.739 17.738v26.481h-11.824V95.907c0-7.079-2.082-10.576-7.578-10.576-6.412 0-9.161 3.58-9.161 12.324v22.568h-11.824V77.169zM361.434 99.154c-1.999 1.75-6.164 1.832-9.827 2.498-3.664.75-6.995 1.999-6.995 6.33 0 4.413 3.414 5.496 7.244 5.496 9.243 0 9.578-7.328 9.578-9.91v-4.414zm-27.315-8.744c.667-11.075 10.576-14.406 20.236-14.406 8.576 0 18.903 1.915 18.903 12.241v22.401c0 3.914.416 7.828 1.5 9.576h-11.993c-.416-1.332-.748-2.747-.833-4.163-3.747 3.914-9.243 5.329-14.489 5.329-8.161 0-14.657-4.08-14.657-12.907 0-9.744 7.329-12.075 14.657-13.074 7.245-1.083 13.991-.833 13.991-5.663 0-5.08-3.498-5.829-7.662-5.829-4.497 0-7.412 1.833-7.829 6.495h-11.824zM491.173 88.476h10.16c6.079 0 11.491-1.333 11.491-8.911 0-7.578-5.412-8.911-11.491-8.911h-10.16v17.822zm-13.074-27.981h26.814c14.823 0 20.569 9.41 20.569 19.07s-5.746 19.07-20.569 19.07h-13.74v21.318h-13.074V60.495zM547.051 112.208c8.079 0 10.494-6.912 10.494-13.74 0-6.912-2.415-13.824-10.494-13.824-7.994 0-10.408 6.912-10.408 13.824 0 6.828 2.414 13.74 10.408 13.74zm0-36.474c13.574 0 22.318 8.994 22.318 22.734 0 13.658-8.744 22.65-22.318 22.65-13.49 0-22.233-8.992-22.233-22.65 0-13.74 8.743-22.734 22.233-22.734zM573.2 60.495h11.827v59.458H573.2V60.495zM590.523 76.899h11.825v43.054h-11.825V76.899zm11.825-6.662h-11.825v-9.742h11.825v9.742zM616.671 105.963c.084 5.163 4.414 7.245 9.076 7.245 3.415 0 7.745-1.332 7.745-5.496 0-3.581-4.913-4.83-13.407-6.662-6.828-1.499-13.657-3.914-13.657-11.492 0-10.992 9.494-13.824 18.737-13.824 9.41 0 18.071 3.165 18.986 13.741H632.91c-.333-4.581-3.83-5.829-8.078-5.829-2.664 0-6.579.499-6.579 3.997 0 4.247 6.662 4.83 13.408 6.412 6.911 1.582 13.656 4.08 13.656 12.074 0 11.326-9.826 14.989-19.652 14.989-9.993 0-19.737-3.746-20.236-15.155h11.242zM349.181 70.787h8.079l12.368-12.117H357.26l-8.079 12.117z"/>
  <path d="M349.181 70.787h8.079l12.368-12.117H357.26l-8.079 12.117z"/>
</svg>
