<?xml version="1.0" encoding="utf-8"?>
<!-- Generator: Adobe Illustrator 19.0.0, SVG Export Plug-In . SVG Version: 6.00 Build 0)  -->
<svg version="1.1" id="PPKE" xmlns="http://www.w3.org/2000/svg" xmlns:xlink="http://www.w3.org/1999/xlink" x="0px" y="0px"
	 width="1221px" height="299px" viewBox="0 0 1221 299" enable-background="new 0 0 1221 299" xml:space="preserve">
<text transform="matrix(1 0 0 1 347.4385 296.7344)" font-family="'HelveticaNeue-Bold'" font-size="168px" letter-spacing="-10">Polis Košice</text>
<text transform="matrix(1 0 0 1 344.4565 161)"><tspan x="0" y="0" font-family="'HelveticaNeue-Bold'" font-size="218px" letter-spacing="-13">P</tspan><tspan x="131.5" y="0" font-family="'HelveticaNeue-Bold'" font-size="218px" letter-spacing="-10">a</tspan><tspan x="246.1" y="0" font-family="'HelveticaNeue-Bold'" font-size="218px" letter-spacing="-5">r</tspan><tspan x="325.5" y="0" font-family="'HelveticaNeue-Bold'" font-size="218px" letter-spacing="-11">al</tspan><tspan x="482.9" y="0" font-family="'HelveticaNeue-Bold'" font-size="218px" letter-spacing="-11">elná</tspan></text>
<g>
	<g>
		<defs>
			<rect id="SVGID_1_" x="0" y="0.5" width="345.8" height="297.1"/>
		</defs>
		<clipPath id="SVGID_2_">
			<use xlink:href="#SVGID_1_"  overflow="visible"/>
		</clipPath>
		<path clip-path="url(#SVGID_2_)" d="M0,297.6c57.8-99.3,115.2-198,172.9-297.1c57.7,99.1,115.2,197.8,173,296.9
			c-85.1,0-169.6,0-254.5,0c1.7-2.9,3.4-5.7,5.1-8.5c5.6-9.2,11.2-18.3,16.6-27.6c1-1.7,2.1-1.9,3.8-1.9c51.3,0,102.5,0,153.8,0
			c1,0,2,0,3.5,0C240.4,201.2,206.9,143.3,173.1,85c-1.1,1.8-2.1,3.3-3.1,4.9c-8.4,14.2-16.8,28.4-25.1,42.6
			c-8.3,14.1-16.4,28.2-24.7,42.3c-6.5,11-13.1,22-19.5,33c-7.3,12.5-14.4,25-21.7,37.4c-6.9,11.8-14,23.6-20.9,35.4
			c-3,5.2-6,10.4-9.1,15.5c-0.4,0.6-1.3,1.4-2,1.4C31.6,297.6,16.2,297.6,0,297.6L0,297.6z"/>
	</g>
</g>
</svg>
