<svg xmlns="http://www.w3.org/2000/svg" width="600" height="158.238">
  <path d="M90.046 44.2l53.503 92.358H60.076L48.04 156.911h132.054L90.001 2.453 0 156.911h24.272L90.046 44.2zM203.648 37.678h12.727c7.617 0 14.397-1.669 14.397-11.163 0-9.495-6.78-11.163-14.397-11.163h-12.727v22.326zM187.267 2.623h33.594c18.571 0 25.769 11.79 25.769 23.892s-7.198 23.891-25.769 23.891h-17.213v26.708h-16.381V2.623zM282.418 50.719c-2.505 2.192-7.721 2.295-12.311 3.13-4.591.938-8.765 2.504-8.765 7.929 0 5.53 4.278 6.886 9.078 6.886 11.58 0 11.998-9.182 11.998-12.416v-5.529zm-34.221-10.955c.834-13.875 13.249-18.048 25.352-18.048 10.746 0 23.683 2.399 23.683 15.336v28.064c0 4.904.521 9.807 1.878 11.999h-15.024c-.521-1.67-.938-3.443-1.043-5.218-4.695 4.904-11.58 6.678-18.154 6.678-10.224 0-18.361-5.112-18.361-16.171 0-12.207 9.181-15.128 18.361-16.38 9.077-1.356 17.529-1.042 17.529-7.093 0-6.364-4.383-7.303-9.6-7.303-5.633 0-9.284 2.294-9.806 8.136h-14.815zM304.328 23.176h14.085v10.015h.208c2.713-6.781 10.015-11.475 17.214-11.475 1.043 0 2.296.209 3.234.522v13.771c-1.355-.313-3.547-.522-5.32-.522-10.851 0-14.607 7.824-14.607 17.319v24.308h-14.814V23.176zM376.106 50.719c-2.504 2.192-7.719 2.295-12.31 3.13-4.591.938-8.764 2.504-8.764 7.929 0 5.53 4.277 6.886 9.077 6.886 11.58 0 11.997-9.182 11.997-12.416v-5.529zm-34.22-10.955c.835-13.875 13.25-18.048 25.352-18.048 10.746 0 23.683 2.399 23.683 15.336v28.064c0 4.904.521 9.807 1.877 11.999h-15.021c-.522-1.67-.939-3.443-1.044-5.218-4.696 4.904-11.581 6.678-18.154 6.678-10.225 0-18.361-5.112-18.361-16.171 0-12.207 9.18-15.128 18.361-16.38 9.076-1.356 17.527-1.042 17.527-7.093 0-6.364-4.382-7.303-9.598-7.303-5.634 0-9.285 2.294-9.807 8.136h-14.815zM396.244 2.623h14.815v74.491h-14.815V2.623zM454.355 44.355c-1.357-7.512-4.592-11.476-11.79-11.476-9.39 0-12.103 7.303-12.311 11.476h24.101zm-24.101 9.39c.418 9.389 5.008 13.667 13.25 13.667 5.947 0 10.745-3.651 11.684-6.99h13.042c-4.174 12.728-13.042 18.153-25.247 18.153-17.007 0-27.543-11.685-27.543-28.378 0-16.171 11.161-28.482 27.543-28.482 18.362 0 27.229 15.442 26.186 32.03h-38.915zM473.551 2.623h14.816v74.491h-14.816V2.623zM493.583 23.176h14.086v7.512h.312c3.755-6.05 10.224-8.972 16.483-8.972 15.754 0 19.718 8.868 19.718 22.223v33.175h-14.814V46.65c0-8.868-2.608-13.25-9.494-13.25-8.033 0-11.476 4.487-11.476 15.441v28.273h-14.815V23.176zM583.308 50.719c-2.505 2.192-7.72 2.295-12.311 3.13-4.591.938-8.763 2.504-8.763 7.929 0 5.53 4.276 6.886 9.076 6.886 11.58 0 11.998-9.182 11.998-12.416v-5.529zm-34.22-10.955c.835-13.875 13.25-18.048 25.351-18.048 10.746 0 23.683 2.399 23.683 15.336v28.064c0 4.904.521 9.807 1.878 11.999h-15.023c-.521-1.67-.938-3.443-1.043-5.218-4.696 4.904-11.581 6.678-18.154 6.678-10.224 0-18.361-5.112-18.361-16.171 0-12.207 9.181-15.128 18.361-16.38 9.077-1.356 17.528-1.042 17.528-7.093 0-6.364-4.383-7.303-9.599-7.303-5.634 0-9.285 2.294-9.807 8.136h-14.814zM203.648 117.34h12.727c7.617 0 14.397-1.669 14.397-11.162 0-9.495-6.78-11.164-14.397-11.164h-12.727v22.326zm-16.381-35.054h33.594c18.571 0 25.769 11.789 25.769 23.892 0 12.101-7.198 23.89-25.769 23.89h-17.213v26.708h-16.381v-74.49zM273.653 147.074c10.121 0 13.145-8.659 13.145-17.215 0-8.659-3.024-17.318-13.145-17.318-10.015 0-13.042 8.659-13.042 17.318 0 8.556 3.027 17.215 13.042 17.215zm0-45.696c17.006 0 27.96 11.268 27.96 28.481 0 17.111-10.954 28.378-27.96 28.378-16.9 0-27.856-11.267-27.856-28.378 0-17.213 10.956-28.481 27.856-28.481zM306.414 82.286h14.815v74.49h-14.815v-74.49zM328.115 102.838h14.815v53.938h-14.815v-53.938zm14.815-8.346h-14.815V82.286h14.815v12.206zM360.874 139.249c.106 6.469 5.531 9.078 11.372 9.078 4.278 0 9.703-1.67 9.703-6.886 0-4.486-6.154-6.052-16.797-8.347-8.554-1.879-17.11-4.904-17.11-14.397 0-13.772 11.893-17.318 23.474-17.318 11.79 0 22.64 3.964 23.787 17.213h-14.085c-.416-5.738-4.797-7.302-10.119-7.302-3.339 0-8.242.625-8.242 5.007 0 5.322 8.346 6.051 16.797 8.033 8.66 1.983 17.11 5.112 17.11 15.129 0 14.188-12.311 18.779-24.622 18.779-12.518 0-24.726-4.696-25.352-18.989h14.084z"/>
  <path d="M203.648 37.678h12.727c7.617 0 14.397-1.669 14.397-11.163 0-9.495-6.78-11.163-14.397-11.163h-12.727v22.326zM187.267 2.623h33.594c18.571 0 25.769 11.79 25.769 23.892s-7.198 23.891-25.769 23.891h-17.213v26.708h-16.381V2.623zM282.418 50.719c-2.505 2.192-7.721 2.295-12.311 3.13-4.591.938-8.765 2.504-8.765 7.929 0 5.53 4.278 6.886 9.078 6.886 11.58 0 11.998-9.182 11.998-12.416v-5.529zm-34.221-10.955c.834-13.875 13.249-18.048 25.352-18.048 10.746 0 23.683 2.399 23.683 15.336v28.064c0 4.904.521 9.807 1.878 11.999h-15.024c-.521-1.67-.938-3.443-1.043-5.218-4.695 4.904-11.58 6.678-18.154 6.678-10.224 0-18.361-5.112-18.361-16.171 0-12.207 9.181-15.128 18.361-16.38 9.077-1.356 17.529-1.042 17.529-7.093 0-6.364-4.383-7.303-9.6-7.303-5.633 0-9.284 2.294-9.806 8.136h-14.815zM304.328 23.176h14.085v10.015h.208c2.713-6.781 10.015-11.475 17.214-11.475 1.043 0 2.296.209 3.234.522v13.771c-1.355-.313-3.547-.522-5.32-.522-10.851 0-14.607 7.824-14.607 17.319v24.308h-14.814V23.176zM376.106 50.719c-2.504 2.192-7.719 2.295-12.31 3.13-4.591.938-8.764 2.504-8.764 7.929 0 5.53 4.277 6.886 9.077 6.886 11.58 0 11.997-9.182 11.997-12.416v-5.529zm-34.22-10.955c.835-13.875 13.25-18.048 25.352-18.048 10.746 0 23.683 2.399 23.683 15.336v28.064c0 4.904.521 9.807 1.877 11.999h-15.021c-.522-1.67-.939-3.443-1.044-5.218-4.696 4.904-11.581 6.678-18.154 6.678-10.225 0-18.361-5.112-18.361-16.171 0-12.207 9.18-15.128 18.361-16.38 9.076-1.356 17.527-1.042 17.527-7.093 0-6.364-4.382-7.303-9.598-7.303-5.634 0-9.285 2.294-9.807 8.136h-14.815zM396.244 2.623h14.815v74.491h-14.815V2.623zM454.355 44.355c-1.357-7.512-4.592-11.476-11.79-11.476-9.39 0-12.103 7.303-12.311 11.476h24.101zm-24.101 9.39c.418 9.389 5.008 13.667 13.25 13.667 5.947 0 10.745-3.651 11.684-6.99h13.042c-4.174 12.728-13.042 18.153-25.247 18.153-17.007 0-27.543-11.685-27.543-28.378 0-16.171 11.161-28.482 27.543-28.482 18.362 0 27.229 15.442 26.186 32.03h-38.915zM473.551 2.623h14.816v74.491h-14.816V2.623zM493.583 23.176h14.086v7.512h.312c3.755-6.05 10.224-8.972 16.483-8.972 15.754 0 19.718 8.868 19.718 22.223v33.175h-14.814V46.65c0-8.868-2.608-13.25-9.494-13.25-8.033 0-11.476 4.487-11.476 15.441v28.273h-14.815V23.176zM583.308 50.719c-2.505 2.192-7.72 2.295-12.311 3.13-4.591.938-8.763 2.504-8.763 7.929 0 5.53 4.276 6.886 9.076 6.886 11.58 0 11.998-9.182 11.998-12.416v-5.529zm-34.22-10.955c.835-13.875 13.25-18.048 25.351-18.048 10.746 0 23.683 2.399 23.683 15.336v28.064c0 4.904.521 9.807 1.878 11.999h-15.023c-.521-1.67-.938-3.443-1.043-5.218-4.696 4.904-11.581 6.678-18.154 6.678-10.224 0-18.361-5.112-18.361-16.171 0-12.207 9.181-15.128 18.361-16.38 9.077-1.356 17.528-1.042 17.528-7.093 0-6.364-4.383-7.303-9.599-7.303-5.634 0-9.285 2.294-9.807 8.136h-14.814zM203.648 117.34h12.727c7.617 0 14.397-1.669 14.397-11.162 0-9.495-6.78-11.164-14.397-11.164h-12.727v22.326zm-16.381-35.054h33.594c18.571 0 25.769 11.789 25.769 23.892 0 12.101-7.198 23.89-25.769 23.89h-17.213v26.708h-16.381v-74.49zM273.653 147.074c10.121 0 13.145-8.659 13.145-17.215 0-8.659-3.024-17.318-13.145-17.318-10.015 0-13.042 8.659-13.042 17.318 0 8.556 3.027 17.215 13.042 17.215zm0-45.696c17.006 0 27.96 11.268 27.96 28.481 0 17.111-10.954 28.378-27.96 28.378-16.9 0-27.856-11.267-27.856-28.378 0-17.213 10.956-28.481 27.856-28.481zM306.414 82.286h14.815v74.49h-14.815v-74.49zM328.115 102.838h14.815v53.938h-14.815v-53.938zm14.815-8.346h-14.815V82.286h14.815v12.206zM360.874 139.249c.106 6.469 5.531 9.078 11.372 9.078 4.278 0 9.703-1.67 9.703-6.886 0-4.486-6.154-6.052-16.797-8.347-8.554-1.879-17.11-4.904-17.11-14.397 0-13.772 11.893-17.318 23.474-17.318 11.79 0 22.64 3.964 23.787 17.213h-14.085c-.416-5.738-4.797-7.302-10.119-7.302-3.339 0-8.242.625-8.242 5.007 0 5.322 8.346 6.051 16.797 8.033 8.66 1.983 17.11 5.112 17.11 15.129 0 14.188-12.311 18.779-24.622 18.779-12.518 0-24.726-4.696-25.352-18.989h14.084zM567.958 15.18h10.122L593.575 0H578.08l-10.122 15.18z"/>
</svg>
