<?xml version="1.0" standalone="no"?>
<!DOCTYPE svg PUBLIC "-//W3C//DTD SVG 20010904//EN"
 "http://www.w3.org/TR/2001/REC-SVG-20010904/DTD/svg10.dtd">
<svg version="1.0" xmlns="http://www.w3.org/2000/svg"
 width="600.000000pt" height="600.000000pt" viewBox="0 0 600.000000 600.000000"
 preserveAspectRatio="xMidYMid meet">
<metadata>
Created by potrace 1.11, written by Peter Selinger 2001-2013
</metadata>
<g transform="translate(0.000000,600.000000) scale(0.100000,-0.100000)"
fill="#000000" stroke="none">
<path d="M2911 5270 c-44 -77 -81 -144 -81 -149 0 -5 -4 -11 -8 -13 -4 -1 -97
-156 -205 -343 -108 -187 -201 -345 -207 -352 -5 -7 -10 -14 -10 -17 0 -3 -38
-70 -85 -150 -47 -80 -85 -150 -85 -156 0 -5 -4 -10 -10 -10 -5 0 -10 -4 -10
-9 0 -5 -21 -45 -48 -88 -26 -43 -58 -99 -72 -125 -14 -27 -28 -48 -32 -48 -5
0 -8 -5 -8 -11 0 -5 -24 -51 -54 -102 -87 -149 -92 -157 -152 -262 -31 -55
-59 -102 -63 -105 -3 -3 -15 -23 -26 -45 -11 -22 -22 -42 -25 -45 -7 -7 -29
-42 -37 -59 -3 -8 -35 -64 -71 -125 -36 -61 -76 -131 -90 -156 -13 -25 -28
-49 -32 -55 -7 -9 -133 -225 -233 -400 -35 -62 -183 -315 -207 -355 -23 -39
-196 -337 -206 -355 -6 -11 -22 -39 -37 -62 -15 -24 -27 -45 -27 -48 0 -2 -16
-29 -35 -59 -19 -30 -35 -57 -35 -60 0 -5 -38 -69 -78 -131 -6 -11 -15 -27
-19 -35 -3 -8 -21 -39 -40 -68 -18 -29 -33 -55 -33 -57 0 -3 -11 -24 -26 -46
-14 -22 -34 -56 -45 -76 -11 -19 -83 -143 -159 -274 -77 -131 -140 -241 -140
-244 0 -8 744 -6 756 3 6 4 27 36 48 72 20 36 48 83 62 105 13 22 27 47 31 55
4 8 24 43 45 78 21 34 38 67 38 72 0 6 3 10 8 10 4 0 18 23 31 50 14 28 29 50
33 50 4 0 8 5 8 11 0 6 16 38 36 70 19 32 34 60 32 63 -2 2 4 12 13 22 23 27
159 261 159 273 0 6 5 11 10 11 6 0 10 4 10 10 0 7 109 200 160 280 5 8 19 33
31 55 11 22 24 42 28 45 3 3 15 23 26 45 11 22 39 70 62 108 24 37 43 69 43
71 0 2 33 60 73 127 40 68 76 131 80 139 4 8 16 29 27 45 11 17 23 37 27 45 4
8 41 74 83 145 43 72 97 164 121 205 24 41 48 83 54 92 5 9 23 42 40 72 16 31
32 56 36 56 4 0 10 11 13 24 3 14 12 31 19 38 6 8 21 29 31 48 10 19 35 62 54
95 19 33 41 71 49 85 8 14 23 39 33 55 11 17 23 37 27 45 4 8 27 49 51 90 25
41 54 91 65 110 11 19 28 49 38 65 11 17 22 37 26 45 3 8 17 32 31 53 13 22
35 59 49 84 13 25 38 66 53 91 16 26 37 62 46 80 20 39 27 40 45 5 8 -15 31
-56 52 -90 20 -35 37 -67 37 -72 0 -5 3 -11 8 -13 9 -4 92 -147 92 -159 0 -5
5 -9 12 -9 6 0 8 -3 5 -7 -4 -3 -1 -13 6 -22 21 -25 97 -158 97 -170 0 -6 5
-11 10 -11 6 0 10 -6 10 -14 0 -7 7 -19 15 -26 8 -7 13 -16 10 -20 -3 -5 -1
-11 5 -15 6 -3 29 -40 53 -82 54 -97 73 -129 136 -238 29 -49 63 -108 76 -130
12 -22 68 -118 124 -214 55 -96 101 -175 101 -176 0 -3 74 -129 90 -155 6 -8
16 -26 22 -40 7 -14 27 -47 44 -75 17 -27 42 -70 56 -95 14 -25 49 -85 78
-135 29 -49 66 -115 83 -145 17 -30 46 -78 64 -107 18 -29 33 -54 33 -57 0 -3
25 -46 55 -97 30 -50 55 -93 55 -94 0 -5 203 -351 211 -360 34 -35 46 -35
-1298 -37 l-1308 -3 -10 -22 c-5 -13 -13 -23 -17 -23 -5 0 -8 -4 -8 -9 0 -4
-19 -41 -42 -80 -24 -39 -47 -79 -53 -89 -5 -9 -50 -86 -100 -169 -122 -207
-133 -227 -134 -235 -1 -5 928 -8 2064 -8 1155 0 2065 4 2065 9 0 4 -9 20 -20
34 -11 14 -20 27 -20 30 0 3 -93 164 -206 359 -114 194 -217 371 -229 393 -13
22 -67 114 -120 205 -54 91 -106 181 -117 200 -11 19 -35 60 -54 91 -19 31
-34 62 -34 68 0 6 -4 11 -10 11 -5 0 -12 11 -16 25 -3 14 -10 25 -14 25 -4 0
-10 8 -14 18 -3 9 -13 31 -23 47 -81 136 -275 469 -303 520 -19 35 -41 70 -48
77 -6 6 -12 15 -12 20 0 4 -20 40 -44 80 -76 126 -97 162 -103 181 -3 9 -9 17
-14 17 -5 0 -9 4 -9 9 0 5 -83 152 -185 326 -102 175 -185 321 -185 326 0 5
-4 9 -10 9 -5 0 -10 4 -10 9 0 12 -103 185 -112 189 -5 2 -8 9 -8 16 0 7 -31
64 -68 127 -38 63 -72 121 -76 129 -7 16 -12 24 -68 116 -21 34 -38 67 -38 73
0 6 -4 11 -8 11 -4 0 -13 12 -20 28 -6 15 -35 65 -63 112 -52 86 -72 119 -110
188 -12 20 -30 49 -40 64 -11 14 -19 29 -19 33 0 4 -26 50 -58 104 -32 53 -73
123 -92 156 -18 33 -40 68 -48 78 -8 9 -12 17 -9 17 4 0 -5 16 -18 36 -13 19
-27 44 -30 55 -4 10 -11 19 -16 19 -5 0 -9 4 -9 9 0 13 -103 191 -111 191 -3
0 -43 -63 -88 -140z"/>
</g>
</svg>
