<svg xmlns="http://www.w3.org/2000/svg" width="300" height="257.3">
  <path fill="#010102" d="M163.268 102.546c3.041 2.711 5.018 7.155 3.869 11.185-.414 4.35-4.199 7.72-8.219 8.793-7.314 2.551-16.193-4.519-14.884-12.333.904-4.519 4.199-8.633 8.548-10.271 3.699-.66 7.975-.17 10.686 2.626z"/>
  <path fill="none" d="M119.132 130.328c-3.54 3.785-7.569 7.156-10.939 11.1.414-3.774 1.487-7.398 2.222-11.174 2.955.074 5.836.074 8.717.074zM132.689 151.125c-1.638 4.199-4.434 7.645-6.082 11.76-2.627-1.809-5.178-3.615-7.476-5.753 4.52-2.052 9.039-3.945 13.558-6.007z"/>
  <path d="M202.074 210.07c-.988-1.648-2.467-2.797-4.273-3.615-.086-3.371-1.563-6.986-4.529-8.879-1.723-.988-3.944-.658-5.668.16a28.101 28.101 0 0 0-4.358-6.326c-1.317-1.479-3.455-1.732-5.263-2.382-4.934-1.157-8.878 2.542-11.994 5.913-10.77-7.805-20.722-16.684-31.492-24.572 4.688-8.879 9.622-17.596 14.385-26.389 1.647-3.211-.075-6.656-1.883-9.377-3.54-5.339-7.645-10.272-11.015-15.695-1.647-.33-3.295-.744-5.018-.659-8.549 0-17.097 0-25.73-.085-2.796 1.563-3.785 4.688-4.604 7.56-1.148 4.933-2.052 9.867-3.125 14.714-1.563-.979-3.125-2.137-4.519-3.445-1.563.574-2.711 1.968-1.892 3.699 2.062 1.064 3.784 2.627 5.677 3.945-.085 2.053 1.309 3.7 3.286 4.35-1.808 2.637-5.592 4.029-5.592 7.729-.405 9.208.085 18.415-.245 27.622-1.893 7.729-3.86 15.374-5.752 23.094-.169 2.797-.819 6.496 2.137 8.059 3.286 2.712 8.878.5 9.612-3.529 2.466-9.622 5.103-19.159 7.484-28.696.33-6.081 0-12.248.085-18.33 5.093 5.837 9.857 11.919 14.715 17.925-1.892 3.861-3.945 7.73-5.762 11.675-2.297 5.753-5.828 10.845-7.475 16.853.574 1.883 1.563 3.775 3.201 5.008 2.636 1.233 5.837.085 7.974-1.563 1.977-3.285 3.785-6.741 5.433-10.187 2.711-5.508 6.157-10.771 8.548-16.447.734-1.808 2.212-3.53 2.052-5.583.16-3.211-2.222-5.678-4.274-7.898-.329-.819 1.064-1.563 1.479-.49 9.207 7.561 18.5 14.96 27.707 22.52-3.041 1.732-5.592 4.199-7.155 7.315-2.956-.574-4.764 1.817-6.167 3.954.659 1.808-.734 2.297-2.137 2.627-2.711 0-5.178 1.148-7.56 2.222-.904 1.394-1.808 2.796-2.881 4.029 5.103.734 10.196-.169 15.214.32 20.467-.32 40.85-.075 61.316-.245-1.807-3.86-5.338-7.231-9.942-6.901zm-93.882-68.643c.414-3.774 1.487-7.398 2.222-11.174 2.956.074 5.837.074 8.718.074-3.54 3.786-7.569 7.157-10.94 11.1zm18.415 21.457c-2.627-1.809-5.178-3.615-7.476-5.753 4.519-2.052 9.038-3.944 13.557-6.007-1.637 4.2-4.433 7.645-6.081 11.76z"/>
</svg>